<svg width="344" height="341" viewBox="0 0 344 341" fill="none" xmlns="http://www.w3.org/2000/svg">
<path d="M342.695 147.723C342.063 146.575 341.403 145.427 340.629 144.164C335.464 135.611 329.323 127.69 322.379 120.629L322.264 120.514C321.432 119.682 320.744 118.993 320.112 118.362C315.177 113.569 309.782 109.12 304.044 105.159C303.871 105.045 303.699 104.93 303.556 104.815C303.125 104.528 302.724 104.241 302.293 103.954C302.15 103.839 301.978 103.753 301.834 103.638C301.834 103.495 301.834 103.351 301.834 103.208C301.834 103.007 301.834 102.806 301.834 102.605C301.834 102.404 301.834 102.203 301.834 102.002C301.719 95.2003 301.031 88.3982 299.854 81.8258L299.711 81.0222C299.567 80.2472 299.424 79.501 299.28 78.7835V78.6687C297.157 68.3651 293.8 58.3773 289.237 48.9347C288.721 47.8154 288.118 46.6387 287.43 45.3184L286.741 43.9982L285.335 43.4816C284.072 42.9937 282.781 42.5345 281.519 42.1327C276.87 40.5254 272.078 39.2052 267.344 38.172C262.523 37.11 257.588 36.3351 252.624 35.8472C251.619 35.7324 250.558 35.6463 249.438 35.5602C242.035 35.0149 234.517 35.101 227.086 35.8759C226.655 35.9046 226.196 35.962 225.766 36.0194C225.68 35.9046 225.594 35.7898 225.479 35.7037C220.888 30.3367 215.838 25.3427 210.5 20.8654C209.668 20.1766 208.836 19.4878 208.061 18.8564L208.004 18.799C199.711 12.1978 190.615 6.60117 180.945 2.20996C179.798 1.69335 178.564 1.14803 177.186 0.574015L175.838 0L174.461 0.487913C173.399 0.861022 171.993 1.34894 170.644 1.89425C161.376 5.48184 152.509 10.1313 144.36 15.728L143.04 16.6464C142.581 16.9621 142.151 17.2778 141.749 17.5935C135.379 22.1857 129.411 27.4092 123.987 33.0919C116.929 31.8865 109.755 31.2838 102.639 31.2838C101.606 31.2838 100.516 31.2838 99.4254 31.3412C88.8085 31.5708 78.2204 33.1493 67.9192 36.0194C66.6566 36.3638 65.3367 36.7656 63.988 37.1961L62.6107 37.6554L61.8647 38.8895C61.2047 39.9801 60.5447 41.1568 59.8274 42.4197C54.9781 51.2021 51.1617 60.5585 48.4645 70.2881C48.1775 71.35 47.9193 72.3832 47.6611 73.4165C45.7959 80.8787 44.5908 88.5705 44.103 96.3196C37.8763 99.993 31.9079 104.184 26.4273 108.804C25.5952 109.493 24.7918 110.182 23.9596 110.9C16.0687 117.874 9.00998 125.853 3.04158 134.578L2.9555 134.693C2.15206 135.841 1.43471 136.931 0.774744 137.993L0 139.227L0.229554 140.691C0.459107 142.126 0.717355 143.446 0.946911 144.738C2.89811 154.697 6.05447 164.455 10.3012 173.697L10.3586 173.812C10.8177 174.787 11.2768 175.735 11.7359 176.682L12.3959 178.031C15.5809 184.316 19.3399 190.401 23.5292 196.083C21.0615 203.029 19.1677 210.233 17.9339 217.437V217.494C17.7617 218.556 17.5895 219.589 17.4174 220.622C15.8966 230.926 15.6383 241.402 16.6713 251.791C16.8148 253.14 16.9583 254.518 17.1304 255.81L17.3313 257.273L18.4504 258.249C19.512 259.168 20.545 260.029 21.578 260.861L21.7215 260.976C29.6985 267.405 38.4502 272.858 47.8045 277.22L48.1489 277.393C48.5219 277.565 48.8662 277.737 49.2679 277.909L50.76 278.569C57.5892 281.554 64.7054 283.965 71.965 285.716C74.5762 292.776 77.8187 299.607 81.6063 306.036L82.008 306.696C82.4384 307.414 82.8688 308.131 83.2992 308.849C88.7225 317.574 95.1787 325.638 102.524 332.814C103.557 333.818 104.561 334.765 105.48 335.598L106.57 336.631H108.062C109.411 336.631 110.788 336.631 112.137 336.631C116.929 336.545 121.778 336.172 126.513 335.54C131.276 334.909 136.096 333.99 140.86 332.785L142.753 332.297C143.786 332.01 144.791 331.752 145.824 331.436C152.94 329.341 159.941 326.614 166.627 323.314C166.77 323.4 166.914 323.486 167.057 323.543C167.172 323.601 167.316 323.687 167.43 323.744C173.829 327.303 180.515 330.345 187.344 332.756C187.861 332.928 188.349 333.101 188.865 333.302L190.414 333.818C200.084 336.975 210.127 338.956 220.314 339.731L222.351 339.874C223.011 339.903 223.7 339.96 224.388 339.989L225.881 340.046L227.028 339.099C228.233 338.123 229.209 337.291 230.127 336.487C237.358 330.173 243.9 323.055 249.553 315.278L250.672 313.699V313.642C251.304 312.781 251.906 311.92 252.48 311.03C254.776 307.557 256.899 304.027 258.793 300.497L259.51 299.119C260.658 296.909 261.777 294.613 262.839 292.231C262.925 292.059 263.011 291.858 263.097 291.686C263.183 291.513 263.24 291.341 263.326 291.169C263.413 291.169 263.47 291.169 263.556 291.14C263.642 291.14 263.699 291.14 263.786 291.112C263.986 291.083 264.216 291.025 264.417 290.997C264.933 290.911 265.421 290.796 265.909 290.71C272.509 289.361 279.022 287.495 285.249 285.17L286.741 284.596C287.257 284.396 287.745 284.195 288.262 283.994C297.731 280.177 306.712 275.24 315.005 269.299L316.669 268.094L319.452 265.941L319.711 264.535C319.854 263.875 319.969 263.214 320.084 262.526L320.428 260.517C321.977 250.529 322.35 240.369 321.547 230.323C321.461 229.175 321.346 227.999 321.26 227.109C320.858 223.32 320.284 219.474 319.51 215.657C318.907 212.672 318.19 209.659 317.386 206.674C317.329 206.473 317.272 206.301 317.214 206.1C317.157 205.899 317.099 205.727 317.042 205.526C316.956 205.182 316.841 204.837 316.755 204.493C317.042 204.148 317.329 203.804 317.616 203.459C317.731 203.316 317.874 203.144 317.989 203C318.104 202.857 318.247 202.685 318.362 202.541C322.178 197.748 325.65 192.668 328.721 187.416L329.467 186.124C329.983 185.206 330.5 184.259 331.016 183.312C335.865 174.242 339.653 164.57 342.207 154.553L342.695 152.573C342.838 152.028 342.953 151.482 343.068 150.937L343.469 149.129L342.752 147.837L342.695 147.723ZM290.729 109.493L291.676 109.981L291.762 110.067V110.326L291.676 110.928L291.332 113.971V114.286C290.729 121.433 289.496 128.522 287.659 135.353L287.171 137.132C286.827 138.366 286.425 139.686 285.937 141.179C285.077 143.819 284.13 146.431 283.068 148.985C275.694 142.413 267.573 136.702 258.936 131.937H258.879C258.42 131.65 257.961 131.392 257.53 131.162L256.698 130.732C256.698 130.732 256.555 130.646 256.497 130.617C256.44 130.588 256.382 130.56 256.325 130.531L254.288 129.498L254.489 127.345C254.603 126.14 254.689 125.164 254.747 124.245C255.493 114.688 255.206 105.131 253.915 95.803C257.272 96.4345 260.6 97.2381 263.843 98.1565L264.446 98.3287C265.938 98.7592 267.171 99.161 268.377 99.5341C275.062 101.715 281.633 104.585 287.917 108.03L290.184 109.178L290.729 109.465V109.493ZM257.014 183.57L250.041 190.659L254.747 202.57C257.989 210.95 260.285 219.618 261.576 228.314L261.662 228.917C261.72 229.348 261.777 229.807 261.863 230.295C261.26 230.524 260.687 230.725 260.113 230.897C251.82 233.653 243.154 235.489 234.403 236.379L233.685 236.437C233.198 236.494 232.652 236.551 232.078 236.58L221.002 237.355L217.961 246.998C217.703 247.773 217.416 248.634 217.071 249.668L216.727 250.643C213.944 258.565 210.357 266.171 206.082 273.26L205.881 273.604C205.536 274.207 205.135 274.838 204.675 275.527L203.155 274.924C194.776 271.624 186.742 267.347 179.339 262.267C178.937 262.009 178.592 261.751 178.219 261.492L177.215 260.804L168.693 254.604L160.142 260.201C159.511 260.631 158.793 261.062 157.875 261.636C150.357 266.171 142.409 269.873 134.203 272.657H134.116C133.342 272.944 132.538 273.231 131.764 273.461C131.591 273.174 131.448 272.887 131.276 272.6L130.903 271.882C126.685 264.075 123.327 255.724 120.888 247.027L120.745 246.539C120.63 246.109 120.487 245.563 120.315 244.932L117.703 234.341L110.071 233.394C108.808 233.251 107.546 233.079 106.283 232.906C105.795 232.849 105.308 232.763 104.82 232.706C100.487 232.045 96.1543 231.098 91.9075 229.95C87.8616 228.86 83.8157 227.539 79.942 226.047L79.3394 225.817C78.6508 225.559 77.9621 225.272 77.2448 224.985C77.3595 224.354 77.503 223.665 77.6752 222.861L78.0482 221.197C79.8272 213.16 82.4958 205.268 85.9391 197.691C86.1113 197.289 86.4269 196.657 86.6852 196.112L86.7425 195.997C87.4312 194.534 87.9764 193.07 88.4642 191.778L91.018 184.976L85.9965 179.896L84.7053 178.547C84.0453 177.83 83.4427 177.17 82.8688 176.481C79.9133 173.065 77.13 169.507 74.5762 165.862C72.1946 162.417 69.9851 158.887 68.0626 155.357L67.5748 154.439C67.3166 153.951 67.0583 153.463 66.8001 152.975C66.8001 152.917 66.7427 152.86 66.714 152.803L67.0009 152.573L68.8374 151.109C75.1788 146.144 82.0941 141.81 89.4111 138.194L91.1615 137.362C91.9649 136.96 92.6823 136.644 93.3996 136.328L102.266 132.396V122.724C102.266 122.466 102.266 122.236 102.266 122.036V121.232C102.209 120.6 102.18 120.055 102.18 119.539V119.223C102.008 110.699 102.725 102.146 104.332 93.8514L104.762 91.7275C104.82 91.3831 104.906 91.0387 104.992 90.6943C105.881 90.6943 106.828 90.723 107.976 90.7804L109.612 90.8378C117.56 91.2683 125.566 92.5024 133.399 94.5115C134.403 94.7698 135.236 94.9994 135.982 95.2003L145.967 98.1565L152.682 89.0871C152.682 89.0871 152.911 88.8001 153.026 88.6278L154.03 87.4224C159.396 80.8212 165.422 74.7941 171.907 69.5419L173.399 68.3651C173.657 68.1355 173.944 67.9346 174.202 67.7337L174.403 67.9059C174.977 68.3938 175.551 68.9104 176.211 69.5132L176.469 69.7428C182.753 75.4542 188.463 81.8832 193.485 88.9149L194.03 89.6611L194.087 89.7185C194.403 90.149 194.719 90.6082 195.034 91.0961L200.572 99.4767L210.386 97.439C210.816 97.3529 211.246 97.2668 211.648 97.152C212.193 97.0372 212.767 96.9224 213.37 96.8076C222.466 95.0281 231.763 94.2819 240.773 94.5976H241.002C241.318 94.5976 241.634 94.5976 241.949 94.6263C242.093 95.4012 242.208 96.2909 242.38 97.3529C243.556 105.848 243.814 114.573 243.126 123.27V123.729L243.097 123.815C243.068 124.446 242.982 125.193 242.896 126.14L241.892 136.3L250.816 140.777C250.816 140.777 251.074 140.921 251.217 141.007L253.398 142.183C260.715 146.202 267.631 151.023 273.972 156.476L275.55 157.883C275.923 158.198 276.268 158.514 276.612 158.83C276.268 159.433 275.866 160.064 275.407 160.839C268.836 171.544 260.113 180.528 259.137 181.532C258.305 182.393 257.616 183.053 257.186 183.484L257.1 183.57H257.014ZM90.4441 119.539V119.625C90.4441 120.342 90.4441 121.146 90.5015 122.064V122.208C90.5015 122.208 90.5015 122.236 90.5015 122.323C90.5015 122.351 90.5015 122.409 90.5015 122.495C90.5015 122.581 90.5015 122.667 90.5015 122.782V124.848L88.6077 125.68C87.7468 126.054 86.8573 126.484 85.8817 126.943L84.1888 127.747C76.5848 131.507 69.3539 135.984 62.6968 141.064C61.8647 138.51 61.0899 135.898 60.43 133.286L60.3152 132.827C59.9709 131.449 59.6552 130.043 59.3683 128.637C57.9336 121.749 57.1301 114.659 56.9867 107.542L56.8145 103.265L60.6308 101.514H60.6882C67.6322 98.1852 74.9205 95.5734 82.4097 93.6792C83.7584 93.3348 85.1357 93.0191 86.5704 92.7321C88.6364 92.3015 90.7024 91.8997 92.7683 91.584C90.9893 100.74 90.2145 110.096 90.4154 119.481L90.4441 119.539ZM248.549 47.184C249.553 47.2701 250.471 47.3275 251.361 47.4423H251.447C255.952 47.9015 260.457 48.5903 264.847 49.5662C269.151 50.4846 273.484 51.7187 277.731 53.1537H277.817C278.018 53.2398 278.19 53.326 278.391 53.3834C278.477 53.5843 278.563 53.7852 278.678 54.0148C282.781 62.5102 285.823 71.5222 287.745 80.7925L287.803 81.137C287.975 82.0267 288.147 82.9164 288.319 83.8061L288.749 86.3892C289.237 89.4889 289.582 92.6747 289.811 95.8317C284.044 92.9043 278.075 90.436 272.021 88.4269C270.672 87.9677 269.237 87.5372 267.544 87.0493L267.085 86.9058H266.999C262.408 85.5856 257.702 84.5236 252.997 83.7487C251.877 79.8454 250.529 75.9134 248.979 72.0675V71.9814C248.405 70.6612 247.832 69.2262 247.114 67.6189C243.929 60.4437 240.055 53.4982 235.579 46.9544C239.912 46.7822 244.245 46.8683 248.549 47.184ZM222.294 48.3607L222.351 48.4181H222.437L224.589 51.6326L224.761 51.8622C229.352 58.3199 233.255 65.1793 236.411 72.3258V72.4119C236.985 73.6174 237.444 74.708 237.846 75.7412L238.076 76.2865C238.936 78.4965 239.769 80.7064 240.486 82.9451C230.701 82.6581 220.773 83.4904 211.046 85.3847C210.357 85.5282 209.668 85.6717 208.98 85.8152C208.664 85.9013 208.32 85.9587 207.975 86.0448L205.881 86.4753L204.704 84.6958C204.102 83.8061 203.556 83.0025 202.983 82.2276V82.1702C197.588 74.6506 191.447 67.705 184.704 61.5344C187.229 60.1567 189.812 58.8365 192.394 57.6598L194.288 56.8274C195.407 56.3395 196.641 55.8229 198.219 55.1915L198.764 54.9906C205.049 52.551 211.591 50.6281 218.248 49.3078L222.351 48.3894L222.294 48.3607ZM148.521 27.0361L148.578 26.9787C148.923 26.7204 149.267 26.4621 149.64 26.2325L150.931 25.3427C158.334 20.2627 166.369 16.0437 174.805 12.7718H174.891C175.092 12.657 175.264 12.5996 175.465 12.5135C175.666 12.5996 175.895 12.7144 176.096 12.8005C184.79 16.7612 192.997 21.7551 200.486 27.6962L200.658 27.8397C201.462 28.4998 202.265 29.1312 202.954 29.7339C206.225 32.4892 209.381 35.4454 212.366 38.5738C206.053 40.0088 199.855 41.9318 193.886 44.3139L193.772 44.3713C192.107 45.0314 190.759 45.6055 189.525 46.1508L187.516 47.0405L187.201 47.184C183.356 48.9634 179.511 50.9725 175.838 53.1537C172.481 50.9151 168.98 48.7912 165.422 46.8683L165.135 46.6961C163.872 46.036 162.524 45.3184 160.917 44.5148L160.802 44.4574C153.456 40.8698 145.709 37.9711 137.761 35.8185C141.175 32.6614 144.762 29.7339 148.521 27.0074V27.0361ZM127 49.1069L129.611 45.7203L133.514 46.8396L133.715 46.897C141.319 48.8773 148.722 51.6039 155.723 55.048L156.326 55.335C157.043 55.7081 157.732 56.0525 158.363 56.3682L159.568 57.0283C161.405 58.0042 163.212 59.0374 164.991 60.128L164.532 60.5011C157.244 66.3848 150.501 73.1295 144.561 80.5055L143.844 81.3666C143.614 81.6536 143.413 81.9119 143.213 82.1702L141.319 84.6958L139.195 84.0644C138.22 83.7774 137.273 83.5191 136.24 83.2608C127.632 81.0509 118.822 79.7019 110.099 79.2427H109.497C110.673 76.2004 112.022 73.2156 113.457 70.2881C114.088 68.9965 114.748 67.705 115.437 66.4422L115.58 66.1839C118.851 60.1854 122.696 54.4453 126.972 49.1069H127ZM58.9666 76.2004C59.1961 75.3394 59.4257 74.3349 59.7126 73.3591C62.1516 64.5192 65.6236 56.0238 70.0425 48.0163L70.3869 47.4136C70.6164 47.3562 70.846 47.2988 71.0468 47.2127C80.4011 44.6009 90.0137 43.1659 99.6549 42.965H99.8562C100.774 42.9363 101.749 42.9076 102.61 42.9076C107.201 42.9076 111.792 43.1946 116.383 43.7399C112.223 49.1356 108.493 54.9045 105.25 60.8742V60.9316C104.475 62.3093 103.758 63.7156 103.098 65.0645C100.803 69.6567 98.7941 74.421 97.1299 79.214C97.1299 79.214 97.1299 79.2427 97.1299 79.2714C96.7281 79.3001 96.3264 79.3575 95.9247 79.4149C92.0223 79.8741 88.1486 80.5055 84.3035 81.3379C82.7254 81.6536 81.1759 82.0267 79.6838 82.3998C71.7068 84.4088 63.8733 87.1928 56.4128 90.6943C56.9867 85.7865 57.8762 80.9073 59.0813 76.1717L58.9666 76.2004ZM22.8406 172.75L22.2093 171.458C21.8937 170.827 21.578 170.195 21.2911 169.535L20.9754 168.846C17.1017 160.437 14.2036 151.54 12.4246 142.384C12.3959 142.183 12.3385 141.954 12.2811 141.724L13.6871 139.686C18.9095 132.31 24.9352 125.566 31.6497 119.653C32.4244 118.965 33.1705 118.333 33.9165 117.702C37.532 114.659 41.377 111.818 45.3942 109.206C45.6525 116.582 46.5133 123.93 48.0054 131.076C48.321 132.597 48.6653 134.147 49.0384 135.611V135.668C50.1861 140.232 51.5635 144.738 53.1703 149.129C53.2277 149.301 53.3138 149.502 53.3712 149.674C53.3999 149.76 53.4573 149.875 53.486 149.99C53.3712 150.105 53.2564 150.22 53.1416 150.363C53.0269 150.507 52.8834 150.65 52.7399 150.794C49.8705 153.807 47.1159 157.05 44.5047 160.437L43.0987 162.303C42.6109 162.934 42.1518 163.565 41.6927 164.226C37.1303 170.626 33.1131 177.485 29.7846 184.603C27.2308 180.786 24.9066 176.825 22.8406 172.75ZM55.4085 267.835L54.0025 267.204C53.6868 267.06 53.3999 266.945 53.0843 266.773L52.7112 266.601C44.1891 262.612 36.1547 257.589 28.895 251.734L28.3785 251.304L28.2925 250.586C27.3456 241.144 27.5751 231.615 28.9524 222.258V222.172C29.0959 221.168 29.2681 220.163 29.4115 219.302V219.073C30.2437 214.538 31.3341 210.003 32.6827 205.555C37.8476 211.41 43.5865 216.777 49.6983 221.57L51.5922 223.005C52.2234 223.493 52.8547 223.952 53.5147 224.411C57.0154 226.937 60.6882 229.319 64.4472 231.5C64.7915 231.701 65.1645 231.902 65.5088 232.103C65.5088 232.218 65.5088 232.361 65.5088 232.476C65.2219 237.097 65.1645 241.775 65.3941 246.424C65.4515 247.917 65.5662 249.495 65.681 251.103C66.2836 258.393 67.5174 265.683 69.3539 272.829C64.6193 271.451 59.9422 269.758 55.4085 267.778V267.835ZM75.3223 192.898C71.5346 201.221 68.6365 209.917 66.6566 218.728L66.5705 219.187C64.4472 217.867 62.3812 216.461 60.3726 214.997C59.7413 214.538 59.1961 214.136 58.6796 213.763L56.8719 212.385C51.1617 207.937 45.8533 202.885 41.0327 197.432L38.1633 194.275L39.9136 190.602L39.9997 190.429C43.0987 183.627 46.8576 177.112 51.1904 171.056C51.5635 170.54 51.9939 169.937 52.3956 169.363L53.7729 167.555C55.2363 165.661 56.7571 163.824 58.3353 162.044C60.3439 165.632 62.582 169.22 64.9923 172.664C67.7757 176.653 70.846 180.585 74.0884 184.287C74.7771 185.091 75.4657 185.837 76.1544 186.583L77.1587 187.645L77.4743 187.961C77.0726 189.052 76.6422 190.171 76.1831 191.147C75.8961 191.75 75.5518 192.467 75.351 192.926L75.3223 192.898ZM82.2376 275.9L81.3193 272.341L81.1759 271.767C79.2534 264.764 77.9621 257.532 77.3595 250.328V250.27C77.2448 248.778 77.1587 247.314 77.0726 245.965C76.9578 243.153 76.9291 240.311 77.0152 237.499C80.9176 238.962 84.9061 240.254 88.9233 241.344C93.5718 242.607 98.3637 243.612 103.127 244.358C103.643 244.444 104.16 244.502 104.705 244.588C105.939 244.76 107.144 244.932 108.349 245.076L108.952 247.544C108.952 247.544 108.952 247.659 108.98 247.687L109.038 247.917C109.239 248.692 109.411 249.409 109.64 250.156C112.223 259.426 115.781 268.381 120.228 276.732C117.876 277.077 115.523 277.306 113.141 277.507C111.62 277.622 110.243 277.708 108.837 277.766C107.287 277.823 105.681 277.852 104.102 277.852C98.2489 277.852 92.3092 277.393 86.4556 276.503L82.2376 275.958V275.9ZM142.438 320.185C141.548 320.444 140.63 320.702 139.769 320.932L137.933 321.419C133.629 322.51 129.238 323.342 124.906 323.888C120.602 324.462 116.183 324.806 111.821 324.892C111.592 324.892 111.362 324.892 111.132 324.892C110.96 324.749 110.817 324.577 110.616 324.404C103.959 317.889 98.0768 310.571 93.1414 302.649C92.7396 302.018 92.3666 301.386 91.9936 300.755L91.6206 300.124C89.3537 296.278 87.3164 292.26 85.48 288.127C93.3709 289.275 101.405 289.705 109.296 289.389C110.788 289.332 112.366 289.246 114.059 289.102C118.536 288.758 123.069 288.155 127.546 287.323C130.415 291.255 133.514 295.043 136.785 298.545C137.875 299.722 138.966 300.87 140.027 301.932C144.877 306.811 150.128 311.317 155.695 315.364C151.362 317.229 146.914 318.836 142.38 320.157L142.438 320.185ZM171.849 307.959C170.702 308.676 169.583 309.423 168.492 310.111L165.25 307.758L165.02 307.586C159.052 303.482 153.456 298.803 148.349 293.637C147.373 292.661 146.398 291.657 145.422 290.566C143.27 288.241 141.204 285.802 139.224 283.276C147.775 280.291 156.096 276.359 163.958 271.595C164.848 271.05 165.68 270.533 166.541 269.988L168.349 268.782L170.185 270.131C170.357 270.246 170.501 270.361 170.673 270.476H170.702C171.333 270.964 171.964 271.394 172.653 271.882C180.716 277.421 189.439 282.071 198.564 285.687C196.985 287.467 195.35 289.189 193.686 290.853L191.763 292.719C191.247 293.207 190.73 293.695 190.185 294.182C184.618 299.263 178.506 303.855 172.022 307.787L171.792 307.93L171.849 307.959ZM249.094 293.666L248.405 294.957C246.684 298.143 244.761 301.358 242.667 304.515C242.093 305.347 241.519 306.179 241.002 306.954L239.998 308.389C234.862 315.45 228.922 321.936 222.351 327.648C222.179 327.791 222.035 327.935 221.863 328.078L221.089 328.021C211.906 327.303 202.782 325.524 194.03 322.682L192.509 322.166C192.079 322.022 191.648 321.879 191.189 321.706C187.287 320.329 183.413 318.722 179.654 316.913C186.225 312.781 192.452 308.074 198.133 302.85C198.707 302.305 199.281 301.788 199.855 301.243L201.577 299.607C204.704 296.536 207.717 293.207 210.587 289.734C215.149 290.853 219.855 291.743 224.561 292.374L226.856 292.661C227.631 292.747 228.406 292.834 229.18 292.891C235.809 293.522 242.609 293.608 249.324 293.207C249.238 293.379 249.151 293.551 249.065 293.723L249.094 293.666ZM263.642 248.721L263.47 250.643C263.326 252.078 263.154 253.485 262.982 254.834C261.978 262.296 260.227 269.672 257.846 276.761L256.727 280.435L256.641 280.751L256.555 280.865L254.948 280.98L252.652 281.124H252.337C245.02 281.841 237.588 281.841 230.357 281.124H229.898C229.295 281.038 228.779 280.98 228.32 280.923L226.081 280.664C222.81 280.234 219.568 279.66 216.354 278.942C221.175 270.935 225.163 262.353 228.205 253.427V253.341C228.549 252.394 228.865 251.447 229.18 250.471L229.812 248.434L232.078 248.261C232.078 248.261 232.308 248.261 232.365 248.261H232.595C233.427 248.175 234.231 248.118 234.948 248.032H235.034C244.876 247.085 254.575 245.018 263.843 241.947C263.9 241.947 263.958 241.918 264.015 241.89C263.958 244.186 263.843 246.453 263.671 248.692L263.642 248.721ZM265.651 198.293L263.728 193.443L265.249 191.893C265.679 191.463 266.454 190.716 267.401 189.741C269.151 187.961 278.219 178.519 285.306 166.981C285.364 166.895 285.421 166.809 285.478 166.723C287.2 168.846 288.864 171.056 290.414 173.266L291.418 174.73C292.25 175.935 292.996 177.084 293.714 178.232L294.574 179.609C298.075 185.407 301.117 191.549 303.613 197.92L304.732 200.532L304.962 201.077L305.191 201.623L305.277 201.824C305.277 201.824 305.22 201.881 305.191 201.91L304.904 202.168L304.474 202.57L304.044 203L302.437 204.521L302.15 204.78C296.87 210.118 291.045 214.997 284.847 219.245C283.699 220.02 282.523 220.823 281.289 221.57C278.649 223.234 275.894 224.842 273.082 226.277C271.648 216.777 269.151 207.334 265.622 198.207L265.651 198.293ZM308.864 258.02L308.663 259.34L308.061 259.77C300.543 265.137 292.365 269.643 283.785 273.087H283.699C283.269 273.317 282.896 273.461 282.523 273.604L281.059 274.149C277.415 275.527 273.656 276.704 269.84 277.708C272.021 270.791 273.599 263.645 274.575 256.441C274.775 254.92 274.976 253.341 275.12 251.734L275.292 249.725C275.608 245.937 275.751 242.062 275.694 238.187C279.74 236.178 283.757 233.94 287.544 231.529C288.864 230.696 290.184 229.835 291.447 228.946C297.128 225.042 302.523 220.68 307.516 215.916C307.659 216.547 307.774 217.178 307.917 217.81C308.606 221.311 309.151 224.813 309.495 228.257C309.581 228.946 309.668 229.835 309.725 230.668V231.184C310.5 240.11 310.184 249.122 308.835 257.991L308.864 258.02ZM330.815 151.569C328.462 160.667 325.048 169.449 320.657 177.658C320.198 178.49 319.825 179.207 319.481 179.81L318.534 181.446C316.812 184.373 314.976 187.215 312.996 189.999C310.328 183.771 307.2 177.744 303.642 172.061L303.498 171.831C302.781 170.683 302.006 169.507 301.174 168.244L301.088 168.1C298.448 164.226 295.55 160.437 292.48 156.792C294.201 152.889 295.751 148.842 297.071 144.766C297.616 143.131 298.046 141.667 298.448 140.289L298.965 138.424C300.686 131.966 301.949 125.307 302.666 118.62C305.937 121.174 309.065 123.901 312.049 126.771C312.623 127.345 313.254 127.977 314.058 128.78L315.32 130.072C321.117 136.156 326.31 142.93 330.672 150.191C330.786 150.392 330.93 150.593 331.045 150.794L330.873 151.54L330.815 151.569Z" fill="black"/>
</svg>
